<?xml version="1.0" standalone="no"?>
<!DOCTYPE svg PUBLIC "-//W3C//DTD SVG 20010904//EN"
 "http://www.w3.org/TR/2001/REC-SVG-20010904/DTD/svg10.dtd">
<svg version="1.0" xmlns="http://www.w3.org/2000/svg"
 width="500.000000pt" height="500.000000pt" viewBox="0 0 500.000000 500.000000"
 preserveAspectRatio="xMidYMid meet">

<g transform="translate(0.000000,500.000000) scale(0.100000,-0.100000)"
fill="#000000" stroke="none">
<path d="M2295 2990 c-142 -88 -210 -136 -210 -148 0 -16 30 -17 423 -20 l422
-2 0 22 c0 18 -16 33 -68 63 -37 22 -130 79 -206 127 -77 49 -142 88 -145 88
-3 0 -101 -59 -216 -130z m263 2 c28 -36 1 -92 -46 -92 -32 0 -62 27 -62 54 1
57 73 82 108 38z"/>
<path d="M1935 2988 c-38 -22 -94 -54 -122 -71 l-53 -31 0 -347 0 -347 -22 -6
c-13 -3 -26 -6 -30 -6 -5 0 -8 90 -8 199 0 150 -3 201 -12 204 -10 4 -10 6 0
6 6 1 12 6 12 11 0 6 -44 10 -112 10 -61 0 -108 -3 -105 -7 4 -3 25 -6 47 -5
31 2 38 -1 34 -13 -4 -9 0 -15 9 -15 21 0 31 17 15 23 -7 3 2 6 20 6 17 1 32
-4 32 -9 0 -6 -6 -9 -12 -8 -17 4 -23 -43 -7 -53 10 -6 10 -11 1 -22 -7 -7 -9
-16 -6 -20 3 -3 3 -14 0 -24 -4 -14 -14 -19 -36 -17 -19 1 -28 -2 -23 -9 4 -6
-2 -8 -15 -5 -12 4 -22 2 -22 -3 0 -5 8 -9 18 -9 13 0 14 -2 3 -9 -7 -5 -10
-14 -7 -20 4 -6 3 -11 -3 -11 -5 0 -12 5 -14 10 -3 6 -4 5 -3 -2 2 -8 22 -14
51 -16 27 -1 50 -4 52 -6 2 -1 0 -17 -3 -33 -5 -23 -13 -32 -32 -36 -39 -7
-50 1 -46 36 1 18 0 26 -3 19 -2 -6 -9 -10 -14 -6 -5 3 -9 -6 -9 -20 0 -13 6
-27 13 -30 10 -5 10 -7 0 -12 -7 -3 -13 -12 -13 -20 0 -8 -6 -13 -12 -11 -8 1
-14 -11 -16 -30 -4 -41 12 -43 30 -3 14 32 28 40 28 16 0 -10 13 -16 38 -18
38 -3 48 -20 29 -45 -13 -17 -57 -16 -76 1 -11 9 -22 11 -36 5 -18 -9 -18 -9
2 -5 13 2 26 0 29 -5 3 -5 -8 -9 -25 -9 -16 0 -32 -4 -35 -8 -7 -12 -135 -33
-171 -29 -16 2 -38 7 -47 12 -11 4 -23 1 -33 -8 -13 -14 -13 -16 3 -19 9 -2
-10 -11 -44 -19 -56 -15 -62 -15 -73 0 -11 15 -12 14 -7 -1 7 -24 -8 -32 -107
-62 -48 -15 -94 -29 -102 -32 -12 -5 -15 6 -15 68 0 70 2 76 25 86 32 15 65
69 65 107 0 40 -34 93 -68 106 -15 6 -45 8 -67 5 -107 -13 -127 -170 -28 -216
l33 -15 0 -80 0 -80 -97 -42 c-110 -48 -243 -130 -243 -150 0 -11 362 -13
2009 -13 1198 0 2012 4 2015 9 10 16 -74 70 -211 137 l-133 65 0 74 c0 72 1
75 29 90 78 40 95 141 32 197 -52 47 -131 35 -166 -24 -37 -64 -15 -148 46
-171 28 -11 29 -13 29 -85 0 -62 -3 -73 -15 -68 -8 3 -54 17 -102 32 -49 14
-96 33 -105 41 -10 9 -28 17 -40 19 -13 1 -52 9 -88 18 -36 9 -81 16 -100 16
-19 1 -57 7 -85 14 l-50 13 -5 209 c-3 118 -7 176 -10 134 -3 -69 -4 -71 -7
-23 -4 47 -6 52 -26 50 -13 -1 -23 4 -25 14 -2 13 3 15 23 12 22 -5 25 -2 24
23 0 16 -3 23 -6 17 -7 -19 -43 -16 -43 3 0 13 8 15 35 12 19 -2 35 0 35 4 0
4 -50 8 -110 8 l-110 0 0 -205 c1 -113 -2 -209 -5 -215 -9 -14 -42 -12 -52 3
-4 6 -8 30 -8 52 -1 22 -2 176 -3 341 l-2 302 -120 66 c-65 36 -122 66 -125
66 -3 0 -5 -180 -5 -400 0 -452 10 -406 -84 -394 l-46 7 2 241 3 241 23 3 c16
3 22 10 22 28 0 24 -2 24 -85 24 -84 0 -85 0 -85 -25 0 -16 6 -25 15 -25 13 0
15 -33 15 -240 l0 -240 -60 0 -60 0 0 240 c0 233 1 240 20 240 15 0 20 7 20
25 0 25 -1 25 -90 25 -89 0 -90 0 -90 -25 0 -20 5 -25 25 -25 l25 0 0 -240 0
-241 -67 3 -68 3 0 235 0 235 23 3 c16 3 22 10 22 28 0 24 -1 24 -90 24 -89 0
-90 0 -90 -25 0 -18 5 -25 20 -25 19 0 20 -7 20 -240 l0 -240 -60 0 -60 0 0
235 c0 224 1 235 20 245 11 6 20 20 20 30 0 18 -7 20 -90 20 -89 0 -90 0 -90
-24 0 -18 6 -25 23 -28 l22 -3 3 -242 2 -243 -29 0 c-15 0 -43 -3 -60 -6 l-31
-6 0 406 c0 223 -3 406 -7 406 -5 -1 -39 -19 -78 -42z m-15 -154 c0 -34 -1
-35 -32 -32 -54 5 -53 68 2 68 28 0 30 -3 30 -36z m1250 1 c0 -32 -3 -35 -29
-35 -23 0 -30 6 -35 25 -9 35 -1 45 35 45 27 0 29 -3 29 -35z m-1250 -161 c0
-34 -1 -35 -32 -32 -29 3 -33 7 -36 36 -3 31 -2 32 32 32 35 0 36 -1 36 -36z
m1250 1 c0 -32 -3 -35 -29 -35 -24 0 -29 5 -33 30 -5 36 -3 40 34 40 25 0 28
-3 28 -35z m255 -105 c18 0 21 -16 3 -17 -7 0 -20 -2 -28 -4 -9 -3 -14 3 -14
14 1 9 -4 17 -12 17 -8 0 -14 5 -14 11 0 7 10 5 25 -5 13 -9 31 -16 40 -16z
m8 23 c-7 -2 -19 -2 -25 0 -7 3 -2 5 12 5 14 0 19 -2 13 -5z m-1513 -79 c0
-34 -1 -35 -32 -32 -29 3 -33 7 -36 36 -3 31 -2 32 32 32 35 0 36 -1 36 -36z
m1250 1 c0 -31 -3 -35 -25 -35 -26 0 -50 32 -41 56 3 8 19 14 36 14 28 0 30
-3 30 -35z m-1485 15 c3 -5 1 -10 -4 -10 -6 0 -11 5 -11 10 0 6 2 10 4 10 3 0
8 -4 11 -10z m1699 -7 c4 -4 24 -6 44 -4 21 1 51 -5 67 -13 27 -14 28 -16 8
-16 -15 0 -23 -6 -23 -16 0 -13 3 -14 13 -5 10 8 14 7 14 -3 0 -8 -10 -19 -22
-24 -37 -17 -113 0 -97 22 13 17 9 34 -13 50 -11 9 -15 16 -9 16 6 0 14 -3 18
-7z m-1694 -35 c0 -19 -2 -20 -10 -8 -13 19 -13 30 0 30 6 0 10 -10 10 -22z
m1727 -74 c-3 -3 -12 -4 -19 -1 -8 3 -5 6 6 6 11 1 17 -2 13 -5z m99 -37 c0
-22 -4 -34 -13 -34 -7 0 -13 8 -13 18 0 10 -6 21 -12 25 -9 6 -5 10 12 15 14
4 25 7 25 8 0 1 0 -14 1 -32z m-1598 -15 c3 -32 2 -33 -30 -30 -22 2 -34 9
-36 21 -6 33 6 49 35 45 24 -2 29 -8 31 -36z m1250 1 c3 -31 1 -33 -27 -33
-24 0 -32 5 -37 24 -8 34 3 48 34 44 22 -2 28 -9 30 -35z m369 -45 c-2 -18 -4
-6 -4 27 0 33 2 48 4 33 2 -15 2 -42 0 -60z m-57 17 c0 -34 -1 -35 -40 -35
-33 0 -40 3 -40 19 0 11 -3 26 -6 35 -5 13 2 16 40 16 46 0 46 0 46 -35z
m-1930 -60 c0 -8 -7 -15 -16 -15 -14 0 -14 3 -4 15 7 8 14 15 16 15 2 0 4 -7
4 -15z m1924 -1 c3 -8 2 -12 -4 -9 -6 3 -10 10 -10 16 0 14 7 11 14 -7z m-90
-6 c-3 -4 -15 -13 -27 -18 -20 -10 -20 -10 -5 3 10 8 16 16 13 19 -3 2 2 5 10
5 8 0 12 -4 9 -9z m42 -35 c-3 -7 1 -13 10 -13 9 0 12 5 8 13 -6 10 -4 10 7 0
20 -20 34 -15 18 5 -8 10 -4 7 9 -6 25 -27 44 -21 38 12 -3 15 1 23 10 23 10
0 14 -13 14 -41 0 -32 -5 -44 -22 -55 -21 -13 -22 -13 -10 2 11 13 10 17 -7
27 -19 9 -21 8 -21 -15 0 -21 -5 -25 -29 -25 -38 0 -67 26 -50 46 6 8 8 14 3
14 -5 0 -3 4 5 9 13 8 13 12 0 28 -13 17 -13 17 4 4 10 -8 16 -20 13 -28z m84
-8 c0 -5 -5 -3 -10 5 -5 8 -10 20 -10 25 0 6 5 3 10 -5 5 -8 10 -19 10 -25z
m-110 21 c0 -2 -7 -7 -16 -10 -8 -3 -12 -2 -9 4 6 10 25 14 25 6z"/>
<path d="M3515 2200 c3 -5 8 -10 11 -10 2 0 4 5 4 10 0 6 -5 10 -11 10 -5 0
-7 -4 -4 -10z"/>
<path d="M1553 2548 c2 -7 -3 -18 -11 -24 -10 -8 -4 -9 24 -5 22 2 31 7 21 9
-18 4 -18 4 0 18 17 12 16 13 -10 14 -19 0 -27 -4 -24 -12z"/>
<path d="M1500 2470 c-8 -5 -12 -11 -9 -14 2 -3 11 -1 19 4 8 5 12 11 9 14 -2
3 -11 1 -19 -4z"/>
<path d="M1492 2400 c0 -14 2 -19 5 -12 2 6 2 18 0 25 -3 6 -5 1 -5 -13z"/>
<path d="M1483 2320 c-1 -11 2 -20 8 -20 5 0 9 9 9 20 0 11 -4 20 -8 20 -4 0
-8 -9 -9 -20z"/>
<path d="M3702 2320 c0 -14 2 -19 5 -12 2 6 2 18 0 25 -3 6 -5 1 -5 -13z"/>
<path d="M1144 2304 c1 -8 4 -15 7 -16 2 -2 3 -1 2 1 -2 2 2 9 7 16 7 8 5 12
-4 12 -8 0 -13 -6 -12 -13z"/>
<path d="M1256 2302 c-3 -5 -22 -8 -43 -7 -38 1 -38 1 -38 -35 l0 -37 50 0
c27 -1 42 1 32 4 -26 7 -10 23 24 23 24 0 29 4 29 25 0 28 -3 30 -33 13 -20
-10 -21 -10 -8 5 8 10 9 17 3 17 -6 0 -13 -4 -16 -8z m-16 -29 c0 -7 -6 -13
-13 -13 -8 0 -14 6 -14 13 0 8 6 14 14 14 7 0 13 -6 13 -14z"/>
<path d="M3780 2296 c0 -7 50 -13 55 -7 2 4 -10 8 -26 9 -16 1 -29 1 -29 -2z"/>
<path d="M1090 2173 c0 -47 4 -62 16 -67 13 -5 14 -4 6 7 -6 7 -11 35 -10 61
0 26 -2 50 -6 53 -3 4 -6 -21 -6 -54z"/>
<path d="M3788 2223 c6 -2 18 -2 25 0 6 3 1 5 -13 5 -14 0 -19 -2 -12 -5z"/>
<path d="M1258 2203 c7 -3 16 -2 19 1 4 3 -2 6 -13 5 -11 0 -14 -3 -6 -6z"/>
<path d="M1285 2190 c-22 -15 -31 -16 -37 -7 -5 7 -7 3 -5 -10 4 -29 13 -37
43 -39 23 -1 24 0 9 23 -17 26 -9 32 10 7 11 -15 12 -15 12 0 0 9 -5 16 -10
16 -5 0 -4 7 3 15 16 19 12 18 -25 -5z"/>
<path d="M1110 2165 c0 -14 14 -19 48 -18 8 1 11 -7 7 -21 -2 -11 -2 -15 1 -8
3 6 10 10 15 6 5 -3 4 6 -3 21 -8 19 -14 22 -20 13 -6 -10 -11 -9 -19 5 -12
21 -29 22 -29 2z"/>
<path d="M3770 2140 c-9 -6 -10 -10 -3 -10 6 0 15 5 18 10 8 12 4 12 -15 0z"/>
<path d="M3811 2143 c-1 -17 16 -25 25 -12 4 7 3 9 -4 5 -5 -3 -13 0 -15 6 -4
9 -6 10 -6 1z"/>
</g>
</svg>
